# xmcd CD database file
#
# Track frame offsets:
#	150
#	64827
#	174021
#	258613
#
# Disc length: 3759 seconds
#
# Revision: 0
# Processed by: cddbd v1.5.2PL0 Copyright (c) Steve Scherf et al.
# Submitted via: CDex 1.51
#
DISCID=2e0ead04
DTITLE=Mike Wall - Passage
DYEAR=2007
DGENRE=New Age
TTITLE0=Dawn of Light
TTITLE1=Point Lobos
TTITLE2=In the Now
TTITLE3=Inner Peace
EXTD=YEAR: 2007
EXTT0=
EXTT1=
EXTT2=
EXTT3=
PLAYORDER=
